<svg width="62" height="43" viewBox="0 0 62 43" fill="none" xmlns="http://www.w3.org/2000/svg">
<mask id="mask0" mask-type="alpha" maskUnits="userSpaceOnUse" x="4" y="0" width="58" height="43">
<path d="M23.9537 0.000201948L61.4537 0L41.5 42.9998L4 43L23.9537 0.000201948Z" fill="#2A58ED"/>
</mask>
<g mask="url(#mask0)">
<path d="M24.0847 31.0884H6.3064" stroke="white" stroke-miterlimit="10"/>
<path d="M-3.47428 31.0885H-6.55109C-7.49859 31.0885 -8.2627 30.3154 -8.2627 29.3795V8.70898C-8.2627 7.76294 -7.49859 7 -6.55109 7H26.326C26.7845 7 27.2124 7.1831 27.5384 7.49845L38.5008 18.4441C38.8268 18.7696 39 19.1968 39 19.6546V29.3795C39 30.3255 38.2359 31.0885 37.2884 31.0885H33.8652" stroke="white" stroke-miterlimit="10"/>
<path d="M30.0243 9.99072H-4.05495C-4.51342 9.99072 -4.89038 10.3671 -4.89038 10.8249V16.5113C-4.89038 16.9691 -4.51342 17.3454 -4.05495 17.3454H37.3802" stroke="white" stroke-miterlimit="10"/>
<path d="M21.0181 9.99072V31.0885" stroke="white" stroke-miterlimit="10"/>
<path d="M1.41594 35.9712C4.11678 35.9712 6.30624 33.7851 6.30624 31.0884C6.30624 28.3917 4.11678 26.2056 1.41594 26.2056C-1.2849 26.2056 -3.47437 28.3917 -3.47437 31.0884C-3.47437 33.7851 -1.2849 35.9712 1.41594 35.9712Z" stroke="white" stroke-miterlimit="10"/>
<path d="M28.975 35.9712C31.6759 35.9712 33.8653 33.7851 33.8653 31.0884C33.8653 28.3917 31.6759 26.2056 28.975 26.2056C26.2742 26.2056 24.0847 28.3917 24.0847 31.0884C24.0847 33.7851 26.2742 35.9712 28.975 35.9712Z" stroke="white" stroke-miterlimit="10"/>
<path d="M39 21.4043H34.9859C34.4459 21.4043 34.0078 21.8417 34.0078 22.3809V23.9067C34.0078 24.4459 34.4459 24.8833 34.9859 24.8833H39" stroke="white" stroke-miterlimit="10"/>
<path d="M26.7641 21.4043H23.5039" stroke="white" stroke-miterlimit="10"/>
<path d="M39.0001 28.1079H35.8826" stroke="white" stroke-miterlimit="10"/>
<path d="M29.9021 31.0884H28.4248" stroke="white" stroke-miterlimit="10"/>
</g>
</svg>
