<svg width="263" height="94" viewBox="0 0 263 94" fill="none" xmlns="http://www.w3.org/2000/svg">
<path d="M1 25.8836L20.6316 13.9418C32.6913 6.6059 47.835 6.6059 59.8947 13.9418V13.9418C71.9545 21.2777 87.0981 21.2777 99.1579 13.9418V13.9418C111.218 6.6059 126.361 6.6059 138.421 13.9418V13.9418C150.481 21.2777 165.624 21.2777 177.684 13.9418V13.9418C189.744 6.6059 204.888 6.6059 216.947 13.9418V13.9418C229.007 21.2777 244.151 21.2777 256.211 13.9418V13.9418C268.27 6.6059 283.414 6.6059 295.474 13.9418V13.9418C307.533 21.2777 322.677 21.2777 334.737 13.9418V13.9418C346.797 6.6059 361.94 6.6059 374 13.9418V13.9418C386.06 21.2777 401.203 21.2777 413.263 13.9418V13.9418C425.323 6.6059 440.467 6.6059 452.526 13.9418V13.9418C464.586 21.2777 479.73 21.2777 491.789 13.9418V13.9418C503.849 6.6059 518.993 6.6059 531.053 13.9418V13.9418C543.112 21.2777 558.256 21.2777 570.316 13.9418V13.9418C582.376 6.6059 597.519 6.6059 609.579 13.9418V13.9418C621.639 21.2777 636.782 21.2777 648.842 13.9418V13.9418C660.902 6.6059 676.046 6.6059 688.105 13.9418V13.9418C700.165 21.2777 715.309 21.2777 727.368 13.9418L747 2" stroke="#DCDCDC" stroke-width="3" stroke-linejoin="round" stroke-dasharray="3 12"/>
<path d="M1 59.1758L20.6316 47.234C32.6913 39.8981 47.835 39.8981 59.8947 47.234V47.234C71.9545 54.5699 87.0981 54.5699 99.1579 47.234V47.234C111.218 39.8981 126.361 39.8981 138.421 47.234V47.234C150.481 54.5699 165.624 54.5699 177.684 47.234V47.234C189.744 39.8981 204.888 39.8981 216.947 47.234V47.234C229.007 54.5699 244.151 54.5699 256.211 47.234V47.234C268.27 39.8981 283.414 39.8981 295.474 47.234V47.234C307.533 54.5699 322.677 54.5699 334.737 47.234V47.234C346.797 39.8981 361.94 39.8981 374 47.234V47.234C386.06 54.5699 401.203 54.5699 413.263 47.234V47.234C425.323 39.8981 440.467 39.8981 452.526 47.234V47.234C464.586 54.5699 479.73 54.5699 491.789 47.234V47.234C503.849 39.8981 518.993 39.8981 531.053 47.234V47.234C543.112 54.5699 558.256 54.5699 570.316 47.234V47.234C582.376 39.8981 597.519 39.8981 609.579 47.234V47.234C621.639 54.5699 636.782 54.5699 648.842 47.234V47.234C660.902 39.8981 676.046 39.8981 688.105 47.234V47.234C700.165 54.5699 715.309 54.5699 727.368 47.234L747 35.2922" stroke="#DCDCDC" stroke-width="3" stroke-linejoin="round" stroke-dasharray="3 12"/>
<path d="M1 92.4683L20.6316 80.5265C32.6913 73.1906 47.835 73.1906 59.8947 80.5265V80.5265C71.9545 87.8624 87.0981 87.8624 99.1579 80.5265V80.5265C111.218 73.1906 126.361 73.1906 138.421 80.5265V80.5265C150.481 87.8624 165.624 87.8624 177.684 80.5265V80.5265C189.744 73.1906 204.888 73.1906 216.947 80.5265V80.5265C229.007 87.8624 244.151 87.8624 256.211 80.5265V80.5265C268.27 73.1906 283.414 73.1906 295.474 80.5265V80.5265C307.533 87.8624 322.677 87.8624 334.737 80.5265V80.5265C346.797 73.1906 361.94 73.1906 374 80.5265V80.5265C386.06 87.8624 401.203 87.8624 413.263 80.5265V80.5265C425.323 73.1906 440.467 73.1906 452.526 80.5265V80.5265C464.586 87.8624 479.73 87.8624 491.789 80.5265V80.5265C503.849 73.1906 518.993 73.1906 531.053 80.5265V80.5265C543.112 87.8624 558.256 87.8624 570.316 80.5265V80.5265C582.376 73.1906 597.519 73.1906 609.579 80.5265V80.5265C621.639 87.8624 636.782 87.8624 648.842 80.5265V80.5265C660.902 73.1906 676.046 73.1906 688.105 80.5265V80.5265C700.165 87.8624 715.309 87.8624 727.368 80.5265L747 68.5847" stroke="#DCDCDC" stroke-width="3" stroke-linejoin="round" stroke-dasharray="3 12"/>
</svg>
